<svg width="257" height="257" viewBox="0 0 257 257" fill="none" xmlns="http://www.w3.org/2000/svg">
<path d="M117.9 185.167C133.712 188.235 147.4 176.199 147.4 160.859C147.4 152.835 143.388 145.519 137.252 141.035L137.251 86.9914C137.251 78.9672 130.879 72.3594 122.619 72.3594C114.595 72.3594 107.987 78.9673 107.987 86.9914V141.035C100.672 146.463 96.4234 155.667 98.5474 166.051C100.436 175.491 108.224 183.279 117.899 185.167H117.9ZM111.056 145.519L113.18 143.867V87.2273C113.18 82.0352 117.428 78.0231 122.384 78.0231C127.576 78.0231 131.824 82.271 131.824 87.2273V143.867L133.948 145.519C138.904 149.059 141.736 154.959 141.736 161.095C141.736 166.287 139.612 171.243 136.072 174.783C132.296 178.323 127.576 180.448 122.384 180.448C112.708 180.448 105.156 173.603 103.504 165.108C102.323 157.32 105.156 149.768 111.056 145.52V145.519Z" fill="#DD7536"/>
<path d="M122.62 174.784C126.396 174.784 129.936 173.368 132.532 170.772C135.128 168.176 136.544 164.636 136.544 160.86C136.544 151.42 128.52 148.352 126.396 146.464L126.395 106.58H118.608V146.464C116.955 148.352 106.572 152.128 108.932 163.692C110.111 169.828 115.54 174.784 122.62 174.784Z" fill="#DD7536"/>
<path d="M156.84 88.4082H143.388V93.8361H156.84C158.255 93.8361 159.435 92.6561 159.435 91.2403C159.671 89.5882 158.491 88.4082 156.84 88.4082Z" fill="#DD7536"/>
<path d="M154.244 105.399C154.244 103.983 153.064 102.803 151.648 102.803H143.624V108.231H151.648C153.064 107.994 154.244 106.814 154.244 105.399Z" fill="#DD7536"/>
<path d="M159.672 119.559C159.672 118.143 158.492 116.963 157.076 116.963H143.624V122.391H157.076C158.492 122.391 159.672 120.975 159.672 119.559Z" fill="#DD7536"/>
</svg>
